<svg width="24" height="25" viewBox="0 0 24 25" fill="none" xmlns="http://www.w3.org/2000/svg">
<path opacity="0.4" d="M19.3249 9.96826C19.3249 9.96826 18.7819 16.7033 18.4669 19.5403C18.3169 20.8953 17.4799 21.6893 16.1089 21.7143C13.4999 21.7613 10.8879 21.7643 8.27991 21.7093C6.96091 21.6823 6.13791 20.8783 5.99091 19.5473C5.67391 16.6853 5.13391 9.96826 5.13391 9.96826" stroke="#044D43" stroke-width="1.5" stroke-linecap="round" stroke-linejoin="round"/>
<path d="M20.7082 6.73975H3.75018" stroke="#044D43" stroke-width="1.5" stroke-linecap="round" stroke-linejoin="round"/>
<path d="M17.4406 6.73973C16.6556 6.73973 15.9796 6.18473 15.8256 5.41573L15.5826 4.19973C15.4326 3.63873 14.9246 3.25073 14.3456 3.25073H10.1126C9.53358 3.25073 9.02558 3.63873 8.87558 4.19973L8.63258 5.41573C8.47858 6.18473 7.80258 6.73973 7.01758 6.73973" stroke="#044D43" stroke-width="1.5" stroke-linecap="round" stroke-linejoin="round"/>
</svg>
